# xmcd CD database file
#
# Track frame offsets:
#	150
#	17102
#	32910
#	55340
#	71795
#	90622
#	110532
#	123295
#	144552
#	164395
#	186055
#
# Disc length: 2779 seconds
#
# Revision: 0
# Processed by: cddbd v1.5.1PL0 Copyright (c) Steve Scherf et al.
# Submitted via: CDex 1.51
#
DISCID=990ad90b
DTITLE=SHOW-YA - Glamour
DYEAR=1988
DGENRE=Hard Rock
TTITLE0=I Gotta Your Love
TTITLE1=The Wind
TTITLE2=愛さずにいられない-Still Be Hangin' On-
TTITLE3=Come On!
TTITLE4=抱かれたまま
TTITLE5=Keep Me In Your Heart
TTITLE6=Rock Train
TTITLE7=フィクサー
TTITLE8=夜のせいじゃない
TTITLE9=限りなくはるかな自由へ-Go Again-
TTITLE10=We'll Still Be Hangin' On
EXTD=YEAR: 1988
EXTT0=
EXTT1=
EXTT2=
EXTT3=
EXTT4=
EXTT5=
EXTT6=
EXTT7=
EXTT8=
EXTT9=
EXTT10=
PLAYORDER=
